<svg xmlns="http://www.w3.org/2000/svg" width="147" height="48" viewBox="0 0 147 48"><g><g clip-path="url(#clip-502E7BFC-6E84-47D9-BB73-91CE57AE2240+7AD6C226-FBE9-4030-A4F9-BC7E38FE452D)"><g><path d="M6.89.198h133.34a6.46 6.46 0 0 1 6.46 6.46v34.91a6.46 6.46 0 0 1-6.46 6.46H6.89a6.46 6.46 0 0 1-6.46-6.46V6.671A6.473 6.473 0 0 1 6.903.198z"/></g><g><g><path fill="#fff" d="M38.558 31.823c-.776 1.71-1.145 2.485-2.141 3.999-1.417 2.116-3.348 4.75-5.784 4.774-2.153.025-2.72-1.398-5.633-1.398-2.944 0-3.559 1.423-5.712 1.398-2.424-.024-4.288-2.398-5.673-4.516-3.889-5.882-4.295-12.882-1.895-16.563 1.71-2.62 4.393-4.159 6.928-4.159s4.196 1.415 6.352 1.415c2.101 0 3.295-1.415 6.273-1.415 2.252 0 4.639 1.23 6.337 3.347-5.61 3.052-4.664 11.001.96 13.13z"/></g><g><path fill="#fff" d="M29 12.981c1.092-1.39 1.916-3.347 1.609-5.353-1.772.123-3.84 1.243-5.045 2.707-1.096 1.33-1.994 3.31-1.65 5.218 1.933.061 3.926-1.095 5.086-2.584z"/></g></g><g><g><g><path fill="#fff" d="M51.731 22.123c.185.726.394 1.49.652 2.314l1.501 4.343h-4.27l1.477-4.38c.222-.714.443-1.477.64-2.29zm-1.317-2.695L44.84 35.831h2.547L49 30.798h5.438l1.71 5.033h2.622l-5.6-16.403z"/></g><g><path fill="#fff" d="M65.387 25.736c2.215 0 3.2 2.055 3.2 4.085 0 2.62-1.268 4.245-3.298 4.245-1.39 0-2.584-.947-2.929-2.3-.061-.21-.086-.493-.086-.8v-1.994c0-.185.037-.406.074-.616.012-.073.025-.158.037-.158.369-1.453 1.615-2.45 2.99-2.45zM66 23.68c-1.683 0-3 .652-3.947 1.894L62 23.94h-2.31v.21c.086 1.05.11 2.14.11 3.74v12.637h2.486v-5.894c.776.923 1.994 1.452 3.397 1.452a5.213 5.213 0 0 0 3.765-1.6c1.083-1.144 1.661-2.805 1.661-4.774 0-1.747-.492-3.249-1.44-4.356A4.734 4.734 0 0 0 66 23.668z"/></g><g><path fill="#fff" d="M78.157 25.736c2.215 0 3.2 2.055 3.2 4.085 0 2.62-1.268 4.245-3.298 4.245-1.39 0-2.584-.947-2.929-2.3a2.856 2.856 0 0 1-.13-.8v-1.994c0-.185.08-.406.118-.616.012-.061.025-.158.037-.158.369-1.453 1.6-2.45 2.99-2.45zm.616-2.055c-1.686 0-3.04.652-3.95 1.894l-.099-1.636H72.46v.21c.074 1.05.11 2.14.11 3.74v12.637h2.486v-5.894c.776.923 1.944 1.452 3.397 1.452a5.213 5.213 0 0 0 3.765-1.6c1.083-1.144 1.661-2.805 1.661-4.774 0-1.747-.504-3.249-1.44-4.356a4.719 4.719 0 0 0-3.642-1.686z"/></g><g><path fill="#fff" d="M94.787 26.38c-2.314-.9-3.064-1.6-3.064-2.905 0-1.095.873-2.203 2.817-2.203 1.612 0 2.634.554 2.917.727l.209.135.701-2.068-.135-.086c-.418-.246-1.6-.782-3.618-.782-3.162 0-5.377 1.84-5.377 4.511 0 2.153 1.378 3.667 4.356 4.75 2.104.74 2.892 1.587 2.892 2.978 0 1.562-1.206 2.534-3.15 2.534-1.268 0-2.572-.369-3.581-1.009l-.21-.135-.664 2.117.12.086c.938.627 2.698 1.083 4.2 1.083 4.269 0 5.8-2.597 5.8-4.824s-1.236-3.716-4.201-4.885z"/></g><g><path fill="#fff" d="M103.44 21.118l-2.44.763v2.067h-1.78v1.982H101v6.078c0 1.465.287 2.498.866 3.19.553.563 1.402.908 2.4.908.934 0 1.599-.185 1.919-.295l.135-.05-.123-1.98-.197.073c-.357.099-.677.135-1.193.135-.96 0-1.379-.603-1.379-2.042v-6.005h2.99V23.96h-2.99v-2.83z"/></g><g><path fill="#fff" d="M112.51 25.635c2.228 0 3.249 2.178 3.249 4.196 0 2.485-1.39 4.294-3.298 4.294h-.024c-1.883 0-3.249-1.771-3.249-4.22 0-2.13 1.021-4.27 3.322-4.27zm.074-1.957c-3.47 0-5.894 2.597-5.894 6.3 0 3.704 2.31 6.116 5.71 6.116h.024c2.843 0 5.894-1.981 5.894-6.325 0-1.772-.541-3.285-1.587-4.393-1.046-1.107-2.473-1.698-4.147-1.698z"/></g><g><path fill="#fff" d="M125.917 23.8l-.147-.038a2.636 2.636 0 0 0-.616-.074c-1.304 0-2.46.763-3.154 1.994v-1.735h-2.26v.251c.086.942.11 2 .11 3.526l-.024 8.11h2.486v-6.325c0-.31.024-.665.074-.96.283-1.514 1.304-2.498 2.614-2.498.253 0 .45.024.659.037l.27.024V23.8z"/></g><g><path fill="#fff" d="M131.341 25.551c.75 0 1.366.234 1.821.647.714.768.838 1.839.838 2.355h-5.649c.234-1.427 1.132-3.002 2.978-3.002zm.16-1.883c-3.298 0-5.611 2.646-5.611 6.424 0 3.777 2.301 5.992 5.845 5.992 1.87 0 3.162-.406 3.925-.75l.148-.062-.48-1.846-.21.086c-.676.271-1.574.554-3.118.554-1.077 0-3.563-.357-3.71-3.593l8.01.025.037-.16c.05-.246.074-.59.074-1.034 0-2.584-1.292-5.611-4.922-5.611z"/></g></g><g><g><path fill="#fff" d="M46 8.957c.277-.05.708-.099 1.286-.099 2.35 0 3.507 1.132 3.495 2.99 0 2.104-1.292 3.298-3.667 3.298-.443 0-.849 0-1.114-.05zm-1.15 6.903a18.94 18.94 0 0 0 2.03.086c1.674 0 3.003-.394 3.827-1.12.8-.714 1.293-1.76 1.293-3.015 0-1.255-.505-2.165-1.28-2.793-.72-.64-1.895-.96-3.495-.96-.874 0-1.686.074-2.375.14z"/></g><g><path fill="#fff" d="M56 15.198c-1.135 0-1.898-.873-1.898-2.091 0-1.058.566-2.166 1.898-2.166 1.326 0 1.855 1.182 1.855 2.13 0 1.266-.855 2.127-1.855 2.127zm-.064.8h.012c1.476 0 3.052-.898 3.052-2.965 0-1.686-1.243-2.835-3-2.835-1.664 0-3 1.075-3 2.946 0 1.76 1.274 2.867 2.936 2.867z"/></g><g><path fill="#fff" d="M60.804 10.308l.837 2.818c.172.628.359 1.206.443 1.784h.037c.135-.566.345-1.169.554-1.772l1.009-2.83h.947l.96 2.794c.234.652.409 1.255.554 1.82h.037c.098-.565.27-1.156.467-1.808l.886-2.793h1.12l-1.993 5.574H65.64l-.947-2.697a14.709 14.709 0 0 1-.554-1.807h-.025c-.114.665-.344 1.255-.566 1.858l-.996 2.646H61.53l-1.87-5.574h1.157z"/></g><g><path fill="#fff" d="M69.78 11.815c0-.617-.013-1.046-.05-1.514h.997l.061.897h.025c.307-.503 1.021-1 2.042-1 .862 0 2.145.436 2.145 2.355v3.335h-1.074v-3.212c0-.898-.37-1.661-1.44-1.661-.726 0-1.304.468-1.486 1.034-.076.15-.101.307-.101.467v3.36h-1.132v-4.061z"/></g><g><path fill="#fff" d="M76.88 7.708H78v8.183h-1.12z"/></g><g><path fill="#fff" d="M82.42 15.198c-1.095 0-1.858-.873-1.858-2.091 0-1.058.566-2.166 1.895-2.166 1.329 0 1.858 1.182 1.858 2.13 0 1.266-.812 2.127-1.882 2.127zm-.024.8h.012c1.477 0 3.076-.898 3.076-2.965 0-1.686-1.267-2.835-2.978-2.835-1.71 0-3.076 1.075-3.076 2.946 0 1.76 1.304 2.867 2.966 2.867z"/></g><g><path fill="#fff" d="M90.163 14c0 .1-.012.198-.05.32-.184.48-.7.936-1.525.936-.588 0-1.046-.308-1.046-.972 0-1.086 1.39-1.28 2.621-1.256zm1.095-1.525c0-1.108-.455-2.277-2.362-2.277-.776 0-1.526.197-2.043.48l.258.677c.431-.27 1.034-.418 1.625-.418 1.264-.013 1.402.836 1.402 1.261v.141c-2.399-.012-3.728.726-3.728 2.068 0 .791.59 1.6 1.895 1.6.886 0 1.563-.382 1.895-.809h.037l.098.685h1.01a8.884 8.884 0 0 1-.087-1.341z"/></g><g><path fill="#fff" d="M97.306 13.529c0 .172-.012.307-.05.443-.196.75-.897 1.226-1.648 1.226-1.206 0-1.834-.943-1.834-2.088 0-1.218.69-2.14 1.859-2.14.849 0 1.464.54 1.624 1.168.037.148.049.308.049.443zm0-5.82v3.322h-.025c-.281-.431-.91-.833-1.87-.833-1.501 0-2.793 1.116-2.78 3 0 1.672 1.156 2.816 2.657 2.816 1.021 0 1.712-.467 2.104-1.095h.025l.05.972h1.008c-.037-.381-.05-.947-.05-1.44V7.708z"/></g><g><path fill="#fff" d="M105.55 15.198c-1.095 0-1.858-.873-1.858-2.091 0-1.058.566-2.166 1.895-2.166 1.329 0 1.858 1.182 1.858 2.13 0 1.266-.812 2.127-1.882 2.127zm-.024.8h.012c1.462 0 3.076-.898 3.076-2.965 0-1.686-1.267-2.835-2.978-2.835-1.71 0-3.076 1.075-3.076 2.946 0 1.76 1.304 2.867 2.966 2.867z"/></g><g><path fill="#fff" d="M110 11.815V10.3h1v.897h.063c.307-.503 1.021-1 2.043-1 .894 0 2.19.436 2.19 2.355v3.335h-1.132v-3.212c0-.898-.37-1.661-1.44-1.661-.724 0-1.304.468-1.513 1.034-.05.15-.074.307-.074.467v3.36H110v-4.061z"/></g><g><path fill="#fff" d="M121.205 8.968v1.342h1.612v.775h-1.612v3.002c0 .69.222 1.111.85 1.111.307 0 .491-.052.651-.102l.05.775a3.271 3.271 0 0 1-.997.136c-.53 0-.948-.16-1.218-.43-.308-.308-.431-.813-.431-1.465v-3.04h-.96v-.775h.96V9.276z"/></g><g><path fill="#fff" d="M124.08 7.708h1.12v3.49h.024c.185-.29.456-.561.776-.721a2.618 2.618 0 0 1 1.193-.279c.807 0 2.166.451 2.166 2.383v3.323h-1.12v-3.2c0-.91-.369-1.661-1.44-1.661-.726 0-1.292.455-1.513 1.009-.062.146-.074.283-.074.48v3.36h-1.12V7.707z"/></g><g><path fill="#fff" d="M131.838 12.529c.086-.702.566-1.65 1.722-1.65 1.255 0 1.55 1.022 1.55 1.65zm-.013.75h4.332c.036-.08.036-.27.036-.48 0-1.021-.529-2.6-2.547-2.6-1.796 0-2.916 1.333-2.916 3 0 1.655 1.157 2.8 3.052 2.8.996 0 1.686-.197 2.08-.357l-.21-.714c-.406.148-.898.27-1.71.27-1.129 0-2.087-.562-2.117-1.919z"/></g></g></g></g></g></svg>