<svg xmlns="http://www.w3.org/2000/svg" width="144" height="48" viewBox="0 0 144 48"><defs><linearGradient id="23f9a" x1="18.76" x2="18.76" y1="9.7" y2="41.47" gradientUnits="userSpaceOnUse"><stop offset="0" stop-color="#2079ad"/><stop offset=".3" stop-color="#4694b1"/><stop offset=".77" stop-color="#7dbcb8"/><stop offset="1" stop-color="#93ccbb"/></linearGradient><linearGradient id="23f9b" x1="10.75" x2="31.08" y1="17.59" y2="17.59" gradientUnits="userSpaceOnUse"><stop offset="0" stop-color="#5ab7a7"/><stop offset="1" stop-color="#e3e697"/></linearGradient><linearGradient id="23f9c" x1="20.91" x2="20.91" y1="25.59" y2="41.59" gradientUnits="userSpaceOnUse"><stop offset="0" stop-color="#e13331"/><stop offset=".15" stop-color="#d23540"/><stop offset=".72" stop-color="#9f3d77"/><stop offset="1" stop-color="#8b418d"/></linearGradient><linearGradient id="23f9d" x1="32.63" x2="32.63" y1="21.32" y2="29.86" gradientUnits="userSpaceOnUse"><stop offset="0" stop-color="#ec847a"/><stop offset=".64" stop-color="#f4b274"/><stop offset="1" stop-color="#f9c872"/></linearGradient></defs><g><g clip-path="url(#clip-502E7BFC-6E84-47D9-BB73-91CE57AE2240+7AD6C226-FBE9-4030-A4F9-BC7E38FE452D)"><g><path fill="#1d1d1b" d="M6.337.668h130.73a6.344 6.344 0 0 1 6.338 6.337v34.193c0 3.535-2.843 6.378-6.337 6.378H6.338C2.842 47.576 0 44.733 0 41.198V7.005A6.344 6.344 0 0 1 6.337.668z"/></g><g><g><g><g><path d="M31.086 21.311l-6.46-3.728s-11.776-6.805-12.478-7.199c-.701-.394-1.378-.186-1.378.677v29.336c0 .627.492.898 1.095.553.603-.344 12.76-7.37 12.76-7.37l6.46-3.729s5.489-3.162 6.215-3.593c.7-.418.7-.997.05-1.33-.616-.331-6.264-3.617-6.264-3.617z"/></g></g><g clip-path="url(#clip-502E7BFC-6E84-47D9-BB73-91CE57AE2240+BF4D42B2-500F-4BD2-93E7-9B7DFCFEECC3)"><g><path fill="url(#23f9a)" d="M10.75 9.698V41.47l16.021-15.886z"/></g><g><path fill="url(#23f9b)" d="M31.078 21.315l-6.472-3.728L10.75 9.588V9.7l16.021 15.886z"/></g><g><path fill="url(#23f9c)" d="M10.75 41.474v.111l13.856-7.998 6.472-3.729-4.307-4.27z"/></g><g><path fill="url(#23f9d)" d="M31.087 21.318l-4.307 4.27 4.307 4.27 7.383-4.27z"/></g></g></g></g><g><g><path fill="#f9f9f9" d="M113.317 24.32c.456.615.683 1.514.683 2.646s-.227 2.03-.683 2.67c-.443.652-1.07.972-1.87.972-.948 0-1.649-.283-2.08-.837-.43-.573-.652-1.476-.652-2.78v-.308c.012-1.145.234-1.981.652-2.485.419-.542 1.095-.8 2.043-.8.812 0 1.452.307 1.907.922zm-1.71 7.47h-.012zm-.006 0c1.203-.002 2.136-.42 2.811-1.256.677-.836 1.022-2.018 1.022-3.531 0-1.514-.332-2.683-.997-3.52-.677-.836-1.612-1.285-2.842-1.285-.595 0-1.17.14-1.65.363-.48.221-.945.637-1.255 1.095h-.061l-.197-1.268H107.3v13.388h1.403v-3.802c0-.492-.037-.997-.099-1.538h.099c.297.455.763.762 1.297 1.021.449.221.996.332 1.6.332z"/></g><g><path fill="#f9f9f9" d="M118.683 31.625h-1.403V18.508h1.403z"/></g><g><path fill="#f9f9f9" d="M123.547 30.64c-.547 0-.972-.135-1.28-.442-.267-.222-.455-.604-.455-1.108 0-.64.246-1.12.738-1.427.45-.308 1.305-.465 2.45-.517l1.365-.062v.837c0 .861-.258 1.526-.75 2.006-.505.48-1.182.713-2.056.713zm3.2.997h1.033v-6.3c0-1.083-.27-1.858-.78-2.35-.549-.493-1.373-.739-2.469-.739-.531 0-1.095.074-1.636.21a6.442 6.442 0 0 0-1.501.578l.43 1.07c.972-.48 1.834-.713 2.609-.713.69 0 1.194.172 1.501.516.308.345.468.874.468 1.6v.578l-1.563.05c-2.99.061-4.479 1.061-4.479 2.928 0 .874.258 1.539.775 2.019.517.48 1.243.713 2.154.713.711 0 1.255-.098 1.711-.307.454-.21.922-.604 1.377-1.182h.062l.283 1.317z"/></g><g><path fill="#f9f9f9" d="M128.575 22.38h1.5l2.019 5.267c.443 1.206.714 2.067.824 2.609H133c.054-.283.201-.775.435-1.477.234-.689.997-2.83 2.289-6.398h1.501l-3.974 10.52c-.394 1.034-.85 1.772-1.379 2.215-.529.431-1.169.653-1.932.653-.43 0-.849-.05-1.267-.148V34.5c.327.062.652.099 1.034.099.96 0 1.649-.542 2.055-1.625l.516-1.316-3.728-9.29z"/></g></g><g><g><path fill="#f9f9f9" d="M84.856 28.198c-.307.267-.856.5-1.316.5-1.661 0-2.412-2.153-2.412-3.445 0-.504.098-1.055.43-1.427.308-.394.85-.628 1.354-.628 1.612 0 2.437 2.154 2.437 3.544 0 .357-.037.972-.48 1.456zm1.55 6.173c0 1.206-.984 2.092-2.842 2.092-2.067 0-3.396-.984-3.396-2.362 0-1.379 1.23-1.846 1.661-1.994.812-.27 1.858-.308 2.03-.308.198 0 .284 0 .444.025 1.464 1.046 2.104 1.563 2.104 2.547zm-.66-11.111h1.116l1.243-.702H84.13c-1.046 0-2.35.148-3.457 1.058-.825.714-1.23 1.699-1.23 2.582 0 1.504 1.168 3 3.21 3h.616c-.098.227-.197.411-.197.743 0 .603.308.973.579 1.317-.874.062-2.498.148-3.651.886-1.185.677-1.53 1.661-1.53 2.363 0 1.44 1.354 2.768 4.16 2.768 3.37 0 5.081-1.833 5.081-3.654 0-1.33-.775-1.994-1.624-2.707l-.701-.542c-.21-.174-.505-.394-.505-.824 0-.431.295-.702.541-.948.813-.64 1.578-1.28 1.578-2.744 0-1.395-.796-2.165-1.254-2.596z"/></g><g><path fill="#f9f9f9" d="M75.947 29.957c-.443.615-1.218.984-1.947.984-2.36 0-3.307-3.15-3.307-5.057 0-.825.135-1.686.886-2.35.421-.407 1.095-.653 1.735-.653 2.387 0 3.2 3.236 3.2 4.935 0 .75-.112 1.525-.58 2.14zm2.473-3.126c0-2.338-1.685-4.553-4.614-4.553s-4.996 2.166-4.996 4.689c0 2.165 1.649 4.553 4.713 4.553 3.138 0 4.897-2.322 4.897-4.689z"/></g><g><path fill="#f9f9f9" d="M65.487 29.957c-.487.615-1.218.984-1.969.984-2.338 0-3.285-3.15-3.285-5.057 0-.825.135-1.686.886-2.35a2.68 2.68 0 0 1 1.735-.653c2.387 0 3.199 3.236 3.199 4.935 0 .75-.11 1.525-.578 2.14zM68 26.83c0-2.338-1.725-4.553-4.654-4.553s-4.996 2.166-4.996 4.689c0 2.165 1.65 4.553 4.713 4.553C66.2 31.52 68 29.198 68 26.83z"/></g><g><path fill="#f9f9f9" d="M56.883 31.198l-2.768.652c-1.115.172-2.115.348-3.2.348-5.352 0-7.395-4-7.395-7 0-3.807 2.892-7.29 7.838-7.29 1.046 0 2.055.16 2.966.406 1.452.406 2.129.884 2.56 1.206l-1.613 1.538-.676.14.48-.755c-.665-.64-1.859-1.82-4.147-1.82-3.064 0-5.378 2.325-5.378 5.72 0 3.643 2.634 7.076 6.867 7.076 1.242 0 1.882-.22 2.46-.48v-3.125l-2.928.16 1.55-.837h4.11l-.504.48c-.105.11-.16.16-.197.308-.025.172-.037.738-.037.935v2.338z"/></g><g><path fill="#f9f9f9" d="M91.812 30.657c-.64-.062-.812-.172-.812-.935V18.746v-.123c.11-.677.308-.8.91-1.145h-2.768l-1.452.72h1.477v12c0 .336-.074.397-.53 1h3.434l.713-.455c-.332-.037-.664-.061-.984-.098z"/></g><g><path fill="#f9f9f9" d="M94.393 26.61c-.025-.345-.062-.69-.062-1.022 0-2.08 1.44-2.682 2.215-2.682 1.046 0 1.907.886 1.907 1.66 0 .272-.184.382-.553.518zm5.279 4.22l1.021-.96c-.693.328-1.366.677-2.35.677-1.821 0-3.483-1.427-3.963-3.876l1.49-.11 4.528-1.834c-.123-.443-.398-1.268-1.342-1.907-.578-.37-1.292-.542-1.98-.542-1.982 0-4.406 1.465-4.406 4.455 0 1.465.603 3.1 1.969 4.06.984.714 1.944.75 2.56.75.578 0 1.23-.085 1.87-.345.221-.122.43-.257.64-.368z"/></g><g><g><path fill="#f9f9f9" d="M101.568 22.414v1.267h-.16v-1.267H101v-.136h1v.136z"/></g><g><path fill="#f9f9f9" d="M103.306 23.681v-1.28l-.394 1.28h-.123l-.394-1.28v1.28h-.135v-1.403h.246l.357 1.132.357-1.132h.246v1.403h-.135z"/></g></g></g><g><g><path fill="#f9f9f9" d="M44.889 12.426c.357-1.046.53-1.613.53-1.686h.048c0 .086.173.652.533 1.686zm2.498 1.698c0-.111-.21-.763-.64-1.926-.43-1.225-.64-1.889-.64-2H45c0 .123-.271.788-.739 2-.467 1.2-.701 1.852-.701 1.926h.91c0-.148.099-.53.284-1.133h1.39c.185.628.27.997.27 1.133z"/></g><g><path fill="#f9f9f9" d="M51.254 14.124h-.738c0-.087-.271-.517-.825-1.305-.578-.824-.91-1.39-.984-1.698h-.05c.05.443.074.837.074 1.194 0 .492.013 1.095.037 1.809H48c.055-.628.08-1.305.08-2.055 0-.75-.013-1.354-.08-1.87h.928c0 .11.246.528.739 1.279.529.788.836 1.329.91 1.6h.05c-.05-.443-.074-.88-.074-1.206 0-.542-.013-1.108-.037-1.674h.75c-.024.492-.037 1.12-.037 1.87 0 .751.013 1.44.037 2.056z"/></g><g><path fill="#f9f9f9" d="M54.786 12.198c0 .35-.099.67-.308.941-.21.27-.53.406-.96.406-.135 0-.258-.012-.394-.037-.024-.467-.024-.947-.024-1.427 0-.43 0-.883-.025-1.255.148-.025.27-.025.357-.025.468 0 .812.136 1.034.397.221.255.332.588.332 1zm.824-.154c0-.504-.16-.948-.492-1.304-.32-.357-.85-.542-1.575-.542H52.3c.025.517.037 1.108.037 1.87 0 .764-.012 1.453-.037 2.056.53.074.935.074 1.23.074.665 0 1.17-.247 1.539-.677.369-.419.553-.923.553-1.49z"/></g><g><path fill="#f9f9f9" d="M58.513 11.355a1.273 1.273 0 0 0 0-.012zm0-.006c-.003.439-.323.658-.96.658h-.283c0-.504-.013-.91-.037-1.218.148-.025.32-.037.504-.037.515 0 .773.207.776.597zm1.132 2.775h-.022l.01.024zm-.022 0c-.254-.676-.46-1.148-.623-1.403a1.114 1.114 0 0 0-.512-.523c.512-.203.788-.548.788-1.052 0-.628-.456-.948-1.379-.948H56.47c.025.517.037 1.108.037 1.87 0 .764-.012 1.453-.037 2.056h.837c-.025-.53-.025-1.046-.025-1.563h.332c.283 0 .48.074.603.246.136.172.308.603.542 1.317z"/></g><g><path fill="#f9f9f9" d="M63.11 12.198c0 .391-.11.724-.307 1-.21.24-.456.376-.751.376-.308 0-.566-.136-.788-.376a1.663 1.663 0 0 1-.32-1c0-.446.056-.778.308-1 .21-.294.455-.43.748-.43.323 0 .593.136.803.43.197.222.32.567.32 1zm.89-.1v.011zm0 .005a2.01 2.01 0 0 0-.582-1.421c-.357-.37-.775-.554-1.33-.554-.553 0-1.02.197-1.402.603-.381.406-.566.923-.566 1.538 0 .566.185 1.046.541 1.416.339.369.776.513 1.339.513.544 0 1-.157 1.393-.563.38-.435.605-.92.607-1.532z"/></g><g><path fill="#f9f9f9" d="M65.66 14.124h-.85a52.416 52.416 0 0 0 0-3.926h.85a52.425 52.425 0 0 0 0 3.925z"/></g><g><path fill="#f9f9f9" d="M69.196 12.198c0 .35-.099.67-.308.941-.21.27-.53.406-.96.406-.135 0-.258-.012-.394-.037-.024-.467-.024-.947-.024-1.427 0-.43 0-.883-.025-1.255.148-.025.27-.025.357-.025.468 0 .812.136 1.034.397.221.255.332.588.332 1zm.804-.166v.012zm0 .006c-.001-.502-.141-.943-.472-1.298-.32-.357-.85-.542-1.528-.542h-1.29c.025.517.037 1.108.037 1.87 0 .764-.012 1.453-.037 2.056.53.074.935.074 1.23.074.665 0 1.17-.247 1.539-.677.367-.417.52-.92.521-1.483z"/></g><g><path fill="#f9f9f9" d="M73.339 12.426c.357-1.046.53-1.613.53-1.686h.048c0 .086.173.652.517 1.686zm2.498 1.698c0-.111-.21-.763-.64-1.926-.43-1.225-.64-1.889-.64-2h-1.144c0 .123-.234.788-.702 2-.467 1.2-.711 1.852-.711 1.926h.92c0-.148.08-.53.284-1.133h1.39c.185.628.27.997.27 1.133z"/></g><g><path fill="#f9f9f9" d="M78.547 11.392c0 .467-.357.701-1.095.701h-.172c0-.48-.012-.895-.037-1.292.16-.037.308-.049.455-.049.579 0 .862.21.862.64zm.812-.194a.913.913 0 0 0-.359-.741 1.965 1.965 0 0 0-1-.259h-1.52c.025.53.037 1.145.037 1.87 0 .788-.012 1.477-.037 2.056h.849c-.037-.616-.037-1.108-.037-1.49h.197c.511 0 .96-.11 1.317-.344.357-.221.529-.578.529-1.092z"/></g><g><path fill="#f9f9f9" d="M82.157 11.392c0 .467-.357.701-1.095.701h-.172c0-.48-.012-.895-.037-1.292.147-.037.308-.049.455-.049.579 0 .862.21.862.64zm.843-.194c0-.31-.166-.57-.424-.741-.271-.173-.576-.259-.972-.259H80.09c.025.53.037 1.145.037 1.87 0 .788-.012 1.477-.037 2.056h.85c-.038-.616-.038-1.108-.038-1.49h.197c.517 0 .96-.11 1.317-.344.357-.221.529-.578.529-1.092z"/></g><g><path fill="#f9f9f9" d="M88 12.198c0 .391-.088.724-.297 1-.21.24-.456.376-.703.376-.356 0-.614-.136-.836-.376-.164-.276-.32-.633-.32-1 0-.446.099-.778.308-1 .21-.294.455-.43.75-.43.32 0 .591.136.8.43.21.222.298.567.298 1zm.86-.1v.011zm0 .005c-.002-.575-.187-1.053-.542-1.421-.318-.37-.775-.554-1.318-.554-.565 0-1 .197-1.414.603-.381.406-.586.923-.586 1.538 0 .566.205 1.046.561 1.416.357.369.776.513 1.33.513.553 0 1.02-.157 1.402-.563.38-.435.565-.92.566-1.532z"/></g><g><path fill="#f9f9f9" d="M92.924 14.124h-.738c0-.087-.271-.517-.825-1.305-.578-.824-.91-1.39-.984-1.698h-.05c.05.443.074.837.074 1.194 0 .492.013 1.095.037 1.809H89.7c.025-.628.05-1.305.05-2.055 0-.75-.013-1.354-.05-1.87h.898c0 .11.246.528.739 1.279.529.788.836 1.329.91 1.6h.05c-.05-.443-.074-.88-.074-1.206 0-.542-.013-1.108-.037-1.674h.75c-.024.492-.037 1.12-.037 1.87 0 .751.013 1.44.037 2.056z"/></g></g></g></g></svg>