<svg xmlns="http://www.w3.org/2000/svg" width="147" height="48" viewBox="0 0 147 48"><g><g clip-path="url(#clip-502E7BFC-6E84-47D9-BB73-91CE57AE2240+7AD6C226-FBE9-4030-A4F9-BC7E38FE452D)"><g><path d="M7.19.198h133.34c3.568 0 6.47 2.892 6.47 6.46v34.91c0 3.569-2.902 6.46-6.47 6.46H7.19a6.46 6.46 0 0 1-6.46-6.46V6.671A6.473 6.473 0 0 1 7.203.198z"/></g><g><path fill="#fff" d="M141.667 25.001h-.041l.004-.012zm-4.417 10.89c-.468 1.194-.91 1.97-1.354 2.307-.443.388-1.033.573-1.76.573h-1.316v-1.366h.972c.443 0 .8-.11 1.058-.332.246-.21.517-.714.825-1.514l.325-.738-4.066-9.82h1.747l3.126 7.802L139.92 25h1.706zm-5.882-11.05l-.012-.003v-.009zm-.012 1.674a1.66 1.66 0 0 0-.603-.234c-.222-.083-.456-.083-.702-.083-.923 0-1.649.317-2.14.92-.493.603-.74 1.464-.74 2.596v5.255h-1.636v-9.98h1.637v1.55a3.474 3.474 0 0 1 1.353-1.34c.554-.308 1.231-.456 2.018-.456.111 0 .234 0 .382.037.132 0 .275.023.43.058zm-15.899 2.572h5.858c-.013-.889-.315-1.612-.763-2.154-.493-.529-1.132-.8-1.945-.8-.91 0-1.607.259-2.202.776-.554.516-.862 1.29-.948 2.178zm7.543.467v.812h-7.592c.074 1.12.406 1.981 1.01 2.584.582.591 1.463.874 2.582.874a7.38 7.38 0 0 0 1.785-.221 8.06 8.06 0 0 0 1.76-.702v1.55a9.219 9.219 0 0 1-1.809.579c-.615.168-1.243.168-1.87.168-1.588 0-2.866-.45-3.79-1.374-.923-.923-1.39-2.166-1.39-3.753 0-1.587.442-2.94 1.314-3.873.9-1 2.094-1.468 3.583-1.468 1.341 0 2.417.468 3.175 1.305.787.861 1.18 2.03 1.18 3.52zm-13.61 5.402V21.088H111v13.868zm-5.069 0V21.088H106v13.868zm-3.384-5.697v5.697h-1.636v-1.513c-.37.603-.837 1.058-1.39 1.353-.567.283-1.244.402-2.056.402-1.021 0-1.855-.254-2.436-.833-.603-.578-.899-1.353-.899-2.313 0-1.12.37-1.956 1.12-2.535.763-.566 1.883-.861 3.36-.861h2.3v-.16c0-.763-.246-1.298-.738-1.747-.492-.406-1.193-.616-2.092-.616-.566 0-1.12.065-1.66.197a6.762 6.762 0 0 0-1.564.616v-1.514A10.222 10.222 0 0 1 95 24.915a7.572 7.572 0 0 1 1.63-.185c1.44 0 2.523.37 3.237 1.12.713.763 1.07 1.895 1.07 3.409zm-1.636.677h-1.625c-1.329 0-2.24.147-2.756.455-.505.295-.763.807-.763 1.55 0 .591.185 1.046.578 1.391.382.345.899.504 1.563.504.91 0 1.649-.32 2.19-.972.512-.666.825-1.501.825-2.572v-.369zm-11.112-.443H85.26v-1.49H90v5.723a9.032 9.032 0 0 1-2.315 1.12c-.837.246-1.685.352-2.685.352-2.065 0-3.702-.586-4.87-1.804-1.13-1.196-1.748-2.905-1.748-5.083 0-2.178.618-3.864 1.747-5.113 1.181-1.187 2.806-1.802 4.871-1.802.876 0 1.7.11 2.475.332a7.49 7.49 0 0 1 2.166.948v1.92a7.024 7.024 0 0 0-2.116-1.28 6.592 6.592 0 0 0-2.363-.431c-1.624 0-2.855.455-3.68 1.313-.811 1-1.217 2.317-1.217 4.101 0 1.784.406 3.15 1.218 4.048.824.911 2.055 1.354 3.679 1.354.64 0 1.206-.05 1.71-.16.488-.11.926-.28 1.317-.498zm-13.511.492c0-1.206-.246-2.153-.75-2.843-.493-.689-1.17-1.033-2.031-1.033-.897 0-1.55.344-2.055 1.033-.492.69-.726 1.637-.726 2.843 0 1.213.246 2.153.726 2.842.505.677 1.158 1.022 2.055 1.022.874 0 1.55-.345 2.03-1.022.505-.689.751-1.629.751-2.842zm-5.574 8.774h-1.65V24.977h1.65v1.501c.344-.59.775-1.034 1.292-1.28.529-.332 1.169-.48 1.895-.48 1.206 0 2.19.48 2.94 1.48.769.932 1.145 2.2 1.145 3.775 0 1.575-.376 2.83-1.144 3.802-.763.96-1.735 1.423-2.941 1.423-.739 0-1.366-.119-1.895-.414-.517-.295-.948-.738-1.292-1.329zm-6.018-8.774c0-1.206-.246-2.153-.75-2.843-.492-.689-1.17-1.033-2.03-1.033-.862 0-1.551.344-2.056 1.033-.492.69-.738 1.637-.738 2.843 0 1.213.246 2.153.738 2.842.505.677 1.182 1.022 2.055 1.022.874 0 1.551-.345 2.03-1.022.505-.689.751-1.629.751-2.842zM57.5 38.759h-1.637V24.977H57.5v1.501c.344-.59.775-1.034 1.304-1.28.53-.332 1.196-.48 1.883-.48 1.218 0 2.203.48 2.953 1.48.763.932 1.145 2.2 1.145 3.775 0 1.575-.382 2.83-1.145 3.802-.763.96-1.747 1.423-2.953 1.423-.687 0-1.354-.119-1.883-.414-.529-.295-.96-.738-1.304-1.329zm-15.64-3.803l5.082-13.302H49l5.054 13.302h-1.87L51 31.536h-6l-1.245 3.42zm8.54-4.91l-2.4-6.62-2.485 6.62z"/></g><g><path fill="#fff" d="M106.588 16.978V10.11h1.243l3.052 5.747V10.11h.91v6.867h-1.255l-3.051-5.78v5.78zM102 9.988c.934 0 1.697.32 2.275.972.578.653.861 1.514.861 2.597s-.283 1.956-.861 2.641c-.578.595-1.354.927-2.275.927-1 0-1.773-.32-2.352-.927-.578-.685-.861-1.558-.861-2.641s.283-1.957.861-2.597c.579-.652 1.352-.972 2.352-.972zm0 .75c-.715 0-1.244.247-1.638.752-.362.504-.603 1.18-.603 2.054 0 .874.241 1.551.603 2.055.394.505.935.751 1.638.751.626 0 1.167-.246 1.561-.75.439-.505.591-1.194.591-2.056 0-.86-.152-1.55-.59-2.055-.395-.504-.936-.75-1.562-.75zm-12.516.148v-.775h5.808v.775h-2.436v6.092h-.935v-6.092zm-1.833 6.092V10.11h.935v6.867zm-8.946 0V10.11H83v.775h-3.372v2.031H82.9v.787h-3.273v2.494h3.494v.78zm-4.455-6.104h-1.169v2.437h1.17c.442 0 .749-.113 1.008-.32.234-.21.345-.517.345-.91 0-.395-.123-.702-.345-.883-.259-.225-.566-.336-1.009-.336zM76 14.198c.182.22.38.515.576.91l.947 1.87h-.996l-.874-1.78c-.234-.435-.455-.743-.653-.89a2.008 2.008 0 0 0-.885-.222h-1.009v2.904h-.935v-6.866h2.104c.788 0 1.378.16 1.725.492.416.32.613.812.613 1.489 0 .43-.099.8-.308 1.093a1.54 1.54 0 0 1-.874.565c.189.076.378.21.569.435zm-8.468-4.21c.96 0 1.722.32 2.3.972.579.64.862 1.514.862 2.597s-.283 1.956-.861 2.641c-.579.595-1.342.927-2.301.927-.96 0-1.748-.32-2.326-.927-.578-.685-.861-1.558-.861-2.641s.283-1.957.861-2.597c.59-.652 1.366-.972 2.326-.972zm0 .75c-.677 0-1.219.247-1.612.752-.394.504-.591 1.18-.591 2.054 0 .874.197 1.551.59 2.055.407.505.948.751 1.613.751.664 0 1.206-.246 1.6-.75.393-.505.602-1.194.602-2.056 0-.86-.197-1.55-.603-2.055-.393-.504-.923-.75-1.6-.75zm-7.703 6.24V10.11h.935v6.087h3.347v.78zm-5.673 0V10.11h2.092c.752 0 1.353.173 1.752.517.389.357.586.862.586 1.57 0 .62-.197 1.15-.586 1.494-.399.345-1 .506-1.752.506h-1.17v2.78zm2.092-6.104h-1.17v2.572h1.17c.43 0 .752-.11 1.009-.332.234-.222.344-.554.344-.972 0-.419-.123-.714-.344-.944-.257-.225-.579-.348-1.01-.348zm-6.743 2.437l-2.13-3.2h.997l1.71 2.547 1.711-2.547h.997l-2.203 3.298 2.35 3.569h-.996L50 14.06l-1.935 2.917h-.997l2.449-3.667zm-7.753 3.667V10.11h4.332v.775h-3.421v2.031h3.273v.787h-3.273v2.494h3.507v.78z"/></g><g><path fill="#dd4459" d="M30 10.138H17.785c-5.785 0-7.875 2.06-7.875 7.863v12.197c0 5.793 2.09 7.898 7.875 7.898H30c5.763 0 7.867-2.117 7.867-7.898V18.001c0-5.803-2.104-7.863-7.867-7.863z"/></g><g><path fill="#fff" d="M23.903 19.47a4.656 4.656 0 0 1-4.651-4.652h.652a3.996 3.996 0 0 0 4 3.987c2.202 0 3.998-1.784 3.998-3.987h.653a4.664 4.664 0 0 1-4.652 4.652zm-8.441 4.65h.738v3.668h-.738v-1.489h-1.674v1.489H13V24.12h.788v1.477h1.674zm4.184 0h.738v2.078c0 1-.578 1.64-1.587 1.64-1.01 0-1.563-.64-1.563-1.64v-2.077H18v2.077c0 .605.267.938.809.938.541 0 .837-.333.837-.938zm10.151 0l-1.267 3.668h-.628l-.836-2.4-.837 2.4h-.603l-1.28-3.667h.8L26 26.644l.783-2.523h.602l.837 2.523L29 24.12zm3.36 2.991v.665h-2.769V24.12h2.683v.677h-1.957v.738h1.354v.662h-1.354v.913zm.843-2.99h.769v3.655H34zm-11.881 2.24h1.12l-.566-1.305zm-.27.664l-.345.75h-.751l1.6-3.654H23l1.605 3.655h-.776l-.332-.751z"/></g></g></g></svg>