<svg xmlns="http://www.w3.org/2000/svg" width="68" height="47" viewBox="0 0 68 47"><defs><clipPath id="tuzga"><path d="M0 .047v46.348h67.48V.047z"/></clipPath></defs><g><g><g/><g clip-path="url(#tuzga)"><path fill="#ff8000" d="M18.87 39.63h-8.11c-.02-1.535 1.17-3.044 2.72-3.114 2.29-.09 4.59-.02 6.84-.02l-1.45 3.144zm38.18 4.646c-2.05 0-3.81-1.732-3.79-3.825.02-2.072 1.74-3.734 3.81-3.724a3.743 3.743 0 0 1 3.74 3.774 3.76 3.76 0 0 1-3.76 3.775zm-28.36-3.825c.03 2.083-1.69 3.825-3.79 3.825-2.06 0-3.78-1.712-3.78-3.775-.01-2.062 1.68-3.764 3.76-3.774 2.12-.01 3.77 1.632 3.81 3.724zm.81-3.915H46v3.104H30.93zm18.75-14.988c3.3 0 6.55-.09 9.75.04 1.74.07 3.07 1.101 4 2.489 1.09 1.596 2.11 3.178 3.13 4.77.12.17.21.4.21.6.01 3.345 0 6.645 0 10.023 0 .04-.03.08-.06.16h-2.37c-.29-1.535-1.04-2.903-2.34-3.885-1.01-.77-2.17-1.141-3.43-1.181-2.8-.09-4.62 1.452-6.03 5.086h-2.85V21.548zM7.39 10.584c-.01-4.626 3.74-8.4 8.35-8.4 4.57 0 8.34 3.764 8.36 8.34.02 4.595-3.77 8.4-8.37 8.4-4.58 0-8.35-3.765-8.35-8.34zm18.84.15c5.65 0 11.23-.04 16.77.02 1.52.01 2.82 1.412 3 2.903.05.331.05.661.05.992v19.614H14v-4.265h1.89c.77-.01 1.24-.41 1.25-1.051.01-.651-.45-1.072-1.22-1.082-.59-.02-1.19-.02-1.78-.02-.04 0-.08-.03-.14-.07v-2.062h.78c2.22 0 4.35.02 6.52 0 .7 0 1.19-.44 1.19-1.052 0-.584-.42-1.01-1.04-1.08-.18-.01-.35 0-.53 0H14v-2.144H27.21c.19 0 .39.01.59 0 .67-.04 1.09-.46 1.09-1.071 0-.62-.42-1.051-1.1-1.051H21.57c2.97-2.247 4.48-5.007 4.67-8.561zm41.24 30.364V28.436c-1.16-1.752-2.32-3.514-3.47-5.267-1.7-2.563-4.07-3.854-7.15-3.854H48.2c0-1.632.02-3.164 0-4.706-.01-.545-.05-1.152-.2-1.703-.61-2.643-2.81-4.315-5.69-4.315-5.14-.02-10.31-.02-15.42 0-.61 0-.89-.11-1.07-.78C24.7 3.494 20.76.27 16.46.046 11.68-.17 7.52 2.523 5.88 6.909 4.29 11.174 5.65 16 9.25 18.824c.17.13.32.247.6.5H6.49c-1.8 0-3.6-.02-5.4 0-.67 0-1.09.471-1.09 1.072 0 .57.44.991 1.07 1.051h10.66v2.143c-1.39 0-2.73-.01-4.06 0-.78.01-1.23.42-1.23 1.081s.44 1.052 1.23 1.072c.68.01 1.33 0 2.04 0h1.99v2.152H6.51c-1.8 0-3.6-.02-5.4 0-.67.01-1.11.45-1.11 1.052 0 .6.44 1.031 1.1 1.081h10.67c0 1.542.01 2.964-.01 4.396 0 .17-.15.41-.3.5-2.08 1.168-2.98 3.014-2.9 5.377.04 1.212.31 1.522 1.52 1.522h8.5c.42 0 .56.07.7.48.85 2.514 3.04 4.096 5.61 4.096 2.58 0 4.76-1.572 5.62-4.095.14-.4.32-.491.7-.491h19.5c.37 0 .57.08.7.48.84 2.484 3.02 4.076 5.59 4.096 2.58.02 4.75-1.522 5.64-4.095.13-.39.36-.491.7-.491.88.02 1.76-.01 2.66.02.63.03 1.14-.14 1.48-.725z"/></g><g clip-path="url(#tuzga)"><path fill="#ff8000" d="M17.127 8.227c.43 1.923-.33 3.465-1.57 4.836-.32.37-.557.791-.86 1.172-.51.68-1.14.83-1.697.44-.503-.39-.523-1.021-.053-1.692.56-.78 1.16-1.542 1.69-2.353.19-.29.363-.67.363-1.011V6.054c0-.82.397-1.271 1.077-1.261.65.01 1.04.46 1.05 1.261v2.163z"/></g><g clip-path="url(#tuzga)"><path fill="#ff8000" d="M55.76 29.985v-5.307c1.15-.12 2.3-.05 3 .971.94 1.362 1.71 2.834 2.6 4.336zm-2.19-2.654c0 1.182-.02 2.373 0 3.555.01.871.43 1.251 1.25 1.251 2.32.02 4.65.03 6.97 0 1.56-.05 2.38-1.451 1.63-2.823-.83-1.502-1.67-2.994-2.55-4.456-.76-1.271-1.87-2.062-3.38-2.263-.78-.1-1.57-.09-2.36-.09-1.25-.01-1.58.31-1.58 1.572v3.264z"/></g><g clip-path="url(#tuzga)"><path fill="#ff8000" d="M24.92 38.726c.97.01 1.73.8 1.71 1.782a1.738 1.738 0 0 1-1.72 1.712c-.97 0-1.75-.771-1.74-1.752 0-.981.83-1.752 1.75-1.742z"/></g><g clip-path="url(#tuzga)"><path fill="#ff8000" d="M58.78 40.508A1.722 1.722 0 0 1 57 42.23c-1-.03-1.71-.801-1.71-1.742 0-.971.79-1.762 1.71-1.752 1 0 1.79.81 1.77 1.772z"/></g></g></g></svg>