<svg xmlns="http://www.w3.org/2000/svg" width="62" height="43" viewBox="0 0 62 43"><defs><clipPath id="zjv6a"><path d="M0 .05v43h61.34v-43z"/></clipPath></defs><g><g><g/><g clip-path="url(#zjv6a)"><path fill="#ff8000" d="M28.66 36.312c-.53-.05-1-.07-1.46-.17-.14-.03-.25-.28-.33-.45-1.02-2.27-1.19-4.643-.87-7.09.1-1.19.54-2.35.83-3.553.09-.337.31-.417.66-.357.41.07.82.12 1.29.18-1.34 3.83-1.31 7.59-.12 11.44zM9.37 34.05c-.53 0-1-.077-1.46-.157-.11-.02-.23-.2-.28-.33-1.26-3.513-1.36-7.05.12-10.513.2-.507.44-.687.94-.547.31.09.71.09 1.12.14-1.51 3.75-1.5 7.52-.44 11.407zm-2.11-29c-.71 2.243-.69 4.413-.2 6.693-1.06-.13-2.15-.24-3.2-.41-.16-.03-.33-.283-.41-.48-.8-1.89-.79-3.803-.01-5.68.17-.41.43-.54.89-.46.94.15 1.89.24 2.94.337zM49.8 29.902v8.22c-.36-.48-.66-.87-.97-1.27-.62-.803-1.31-.803-1.83.11-.31.46-.59.94-1 1.54v-8.15zM34 23.542c-1.48-.18-2.88-.34-4.28-.493-.14-.057-.33-.247-.37-.387-.5-1.95-.56-3.89.12-5.82.13-.35.28-.52.69-.46 1.34.19 2.69.33 4.1.49-.9 2.177-.92 4.38-.26 6.67zM5.55 33.602h.01zm0 0c-.636-.07-1.233-.05-1.76-.23-.33-.11-.63-.48-.79-.81-.66-1.08-.89-2.3-1-3.513-.18-1.807-.07-3.567.52-5.277.16-.45.38-.88.62-1.29.25-.433.61-.64 1.15-.52.54.087 1.1.15 1.71.22-1.53 3.75-1.52 7.53-.45 11.42zM34 25.461c-.94 1.86-1.39 3.73-1.41 5.72-.01 1.96.3 3.867 1.05 5.73-.89-.1-1.7-.17-2.5-.3-.14-.02-.31-.25-.36-.42-.36-1.21-.83-2.42-.98-3.67-.28-2.33-.1-4.65.78-6.88.15-.39.33-.593.78-.49.82.13 1.64.21 2.59.32zm17.85-20.72c-2.61.307-5.07.61-7.52.9-2.48.3-4.95.64-7.43.87-.9.08-1.74-.07-2.61-.17-4.91-.58-9.82-1.17-14.73-1.75-2.2-.26-4.4-.543-6.56-.76a.749.749 0 0 1-.48-.18l4.17-.51c3.17-.38 6.31-.85 9.51-1.093 1.69-.137 3.42 0 5.12.193 4.25.44 8.48.98 12.68 1.48 2.54.327 5 .58 7.53.87.06 0 .11.04.33.14zM58 5.962h-.003l.003-.01zm-.003 0c-.697 2.267-.686 4.414.213 6.61-.89.12-1.75.24-2.61.34-6.27.75-12.55 1.49-18.82 2.26-.45.06-.61-.19-.78-.5-.54-1.19-.65-2.46-.48-3.74.09-.66.29-1.32.54-1.94.1-.22.45-.46.71-.49 3.56-.453 7.13-.88 10.69-1.31 3.19-.39 6.37-.77 9.54-1.143.32 0 .608-.057.997-.087zm.003 8.63h-.003l.003-.01zm-.003 0c-.667 2.247-.676 4.46.263 6.61-1.32.16-2.6.32-3.88.47-4.51.55-9.03 1.09-13.54 1.63-1.35.17-2.7.31-4.04.5-.46.07-.62-.2-.8-.51-.52-1.243-.6-2.46-.47-3.75.01-.13.04-.27.06-.41.24-1.68.51-1.94 2.16-2.14 6.49-.78 12.99-1.57 19.48-2.35.23-.03.459-.03.767-.05zm-30.657 8.18c-.34-.04-.54-.07-.76-.1-.773-.1-1.253-.537-1.44-1.31a9.485 9.485 0 0 1-.08-3.86c.13-.7-.14-1.19-.7-1.31-.55-.143-1.01.23-1.16.92-.35 1.57-.2 3.13.09 4.69.03.14.05.247.09.49-.84-.09-1.65-.18-2.45-.243-5.44-.667-10.93-1.317-16.34-1.927-.76-.073-1.14-.42-1.35-1.073-.51-1.707-.51-3.367.1-5 .2-.547.46-.767 1.11-.687 5.61.687 11.21 1.32 16.82 1.98 2.11.25 4.23.51 6.41.77-.68 2.18-.75 4.37-.32 6.66zM25 24.442h-.003c0-.004.002-.007.003-.01zm-.003 0c-1.367 3.796-1.366 7.553-.177 11.42-1.02-.11-1.99-.21-2.95-.32-3.26-.39-6.53-.77-9.8-1.18-.23-.03-.54-.22-.61-.41-1.23-3.53-1.35-7.05.17-10.55.18-.41.37-.53.85-.47 3.9.49 7.81.93 11.71 1.39.25.03.498.08.807.12zm-13.737-12.2l-.001-.012.021.002zm-.001-.012c-.642-.069-1.215-.108-1.769-.18-.17-.068-.38-.268-.43-.428-.55-1.96-.59-3.93.04-5.89.1-.32.24-.42.59-.38 3.61.44 7.21.85 10.82 1.27 3.95.427 7.89.93 11.83 1.427.66 0 1.26.133 1.93.213-.9 2.18-.92 4.35-.22 6.64-1.05-.11-2.05-.22-3-.33l-16.11-1.89c-.2-.02-.39-.06-.59-.08-1.11-.14-1.16-.13-1.25-1.26-.1-1.11-.05-2.23-.1-3.293 0-.167.06-.287.06-.407 0-.593-.38-1.03-.92-1.05-.52-.02-.98.35-.98.92-.01 1.45.04 2.9.07 4.35 0 .088.01.183.029.368zM57.55 23.242l-.02.002v-.002zm-.02.002c-1.39 3.86-1.45 7.639.35 11.428l-6.12.73v-5.7c.18-.03.36-.07.53-.1.61-.11.95-.553.88-1.08-.07-.53-.54-.89-1.17-.82-1.33.15-2.69.347-4.06.49l-3.68.45c-.2.02-.39.05-.59.09-.5.1-.78.39-.8.9-.02.54.28.85.79.97.12.02.23.04.34.06v5.66c-1.19.15-2.42.3-3.64.45-1.13.14-2.26.21-3.36.42-.73.13-1.17-.143-1.41-.71-.36-.88-.72-1.78-.9-2.71-.37-1.95-.27-3.9.31-5.81.08-.36.21-.72.37-1.06.32-.7.75-1.16 1.63-1.25 4.16-.44 8.29-.96 12.43-1.46 2.52-.3 5.03-.6 7.57-.9.145-.02.319-.03.53-.048zM0 29.112c.16.79.23 1.62.49 2.37.32.93.73 1.85 1.24 2.69.45.75 1.21 1.08 2.11 1.18 3.86.42 7.72.9 11.58 1.35 4.26.51 8.51 1.01 12.77 1.51 2.53.29 5.06.65 7.6.837 1.05.113 2.13-.077 3.21-.187 1.66-.17 3.32-.39 5.07-.6 0 1.15.03 2.26-.01 3.36-.06.59.12 1.05.61 1.427h.72c.26-.357.54-.657.76-1 .62-1 1.21-2 1.85-3.067.69.92 1.32 1.77 2 2.6.38.53 1 .65 1.4.21.2-.23.32-.6.33-.91.04-1.17.02-2.34.02-3.54 1.25-.16 2.48-.293 3.69-.45 1.66-.2 3.33-.39 4.99-.6.51-.07.85-.36.89-.89.04-.5-.22-.9-.7-.97-.62-.1-1.01-.53-1.18-1.05-.36-1.13-.74-2.28-.89-3.45-.25-1.96-.07-3.883.74-5.75.28-.64.63-1.21 1.42-1.41.29-.07.52-.52.6-.84.11-.42-.22-.7-.6-.883-.3-.207-.65-.457-.77-.757-.71-1.78-.72-3.58 0-5.36.12-.3.47-.55.77-.73.38-.22.62-.48.62-.93-.01-.45-.28-.7-.67-.9-.27-.15-.59-.323-.66-.64-.78-1.81-.78-3.683-.05-5.47.1-.27.37-.52.63-.65.42-.23.77-.563.7-1.06-.07-.503-.44-.8-.99-.86-1.09-.11-2.18-.25-3.29-.38-4.29-.51-8.61-1.02-12.93-1.53-4.28-.5-8.56-1.05-12.84-1.5-1.68-.17-3.4-.3-5.07-.17-3.16.25-6.22.71-9.33 1.08-4.2.51-8.39 1.06-12.6 1.49-1.56.16-2.37 1.01-2.8 2.367-.75 2.363-.74 4.693.46 7 .11.113.11.393.04.543-1.35 2.63-1.34 5.27-.1 7.94.07.14.05.39-.04.517-.79 1-1.21 2.183-1.46 3.423-.12.63-.22 1.25-.33 1.88z"/></g></g></g></svg>