<svg xmlns="http://www.w3.org/2000/svg" width="49" height="51" viewBox="0 0 49 51"><defs><clipPath id="xxyia"><path d="M0 .044v50.51h48.93V.044z"/></clipPath></defs><g><g><g/><g clip-path="url(#xxyia)"><path fill="#ff8000" d="M18.88 29.524h-1.61v-1.26h1.61zm9.28 6.74c-.1.46-.16.99-.34 1.5-.16.52-.69.8-1.2.7-.55-.11-.93-.55-.9-1.11.03-.37.12-.73.18-1.09zm2.51-1.62a1.677 1.677 0 0 1-.01.008v-.008zm-.01.008c.14 1.257.28 2.394.34 3.462.08.3.15.71 0 .93-.27.27-.71.23-1.09 0-.4-.19-.64-.55-.58-1 .14-.9.31-1.82.56-2.72.109-.277.472-.427.77-.672zM18.1 39.844v7.72c-.37-.16-.73-.3-1.1-.52a1.63 1.63 0 0 0-1.11 0c-.59.33-1.19.79-1.79.79-.58.01-1.18-.43-1.76-.7-.47-.22-.92-.26-1.34.03-1.15.74-2.26.88-3.42.05-.58-.38-1.14-.31-1.71.04-.17.11-.38.18-.62.29v-7.7zM3.55.044c-.09 0-.17.07-.27.09C1.35.574 0 2.204 0 4.174v31.51c0 1.77 1.11 3.3 2.76 3.9.3.11.63.17.97.26v8.39c0 .87.74 1.41 1.46.95 1.15-.74 2.21-.66 3.3.04.01.01.03.02.04.02.47.27.98.29 1.47-.02 1.09-.76 2.19-.79 3.32-.04.55.36 1.13.34 1.68-.03 1-.69 1.88-.64 2.91-.05 1 .57 1.68.07 1.68-1.06v-8.21c.18-.05.32-.08.41-.12 1.78-.44 2.87-1.54 3.21-3.27.16-.81.07-1.67.1-2.51l.03-.49c.39.52.66 1.02.98 1.54.1.21.16.48.14.71-.04.49-.19.97-.24 1.46-.14 1.33.78 2.57 2.07 2.74.64.08 1.3-.1 2.07-.18.79.97 1.92 1.27 3.26.71.08.21.15.37.21.54.74 1.97 1.79 3.77 3.27 5.28 1.17 1.2 2.4 2.33 3.08 3.91.02.03.04.05.06.08.27.32.59.43.96.22s.5-.59.3-.93c-.64-1.07-1.11-2.24-2.11-3.11-3-2.6-4.7-5.91-5.07-9.87-.17-1.86-.22-3.74-.32-5.61 0-.74-.16-1.41-.55-2.05-.76-1.27-1.45-2.56-2.21-3.84-.45-.82-.24-1.66.47-2.06.7-.39 1.5-.13 1.96.66.44.74.85 1.48 1.33 2.22.22.46.64.6 1 .39.41-.21.5-.64.24-1.11-.43-.76-.86-1.52-1.3-2.27-.87-1.48-2.58-1.98-3.94-1.17-1.45.81-1.89 2.53-1.06 4.02.45.8.87 1.63 1.38 2.39.86 1.29 1.45 2.64 1.29 4.23-.01.09 0 .19.02.29.06.29-.07.41-.32.58-.76.42-1.51.83-2.31 1.29-1.16.68-2 .46-2.66-.73-1.81-3.18-3.63-6.36-5.45-9.54-.07-.11-.13-.19-.2-.34-.25-.36-.69-.46-.99-.27-.37.21-.5.61-.28 1.02.31.6.66 1.17.99 1.76.09.14.17.29.22.39-.97 0-1.9-.04-2.83.01-.56.03-1.01.55-1.05 1.14-.04.62-.04 1.25 0 1.87.05.72.58 1.23 1.31 1.23h1.73c1.06 0 1.56-.51 1.58-1.58v-1.19c.55.77.99 1.48 1.41 2.23.05.09.07.22.07.33.01 1.63.04 3.21-.01 4.88-.05 1.54-1.17 2.61-2.71 2.61-4.98.01-9.96.01-14.94 0-1.57 0-2.7-1.15-2.7-2.72V4.284c0-1.62 1.14-2.76 2.77-2.76h14.8c1.62.01 2.76 1.08 2.79 2.69.03 1.74 0 3.49 0 5.23-.01.13-.05.32-.14.38-.4.22-.83.5-1.34.79v-3.46c0-1.11-.37-1.5-1.52-1.5H4.5c-.14 0-.29-.01-.44 0-.58.04-1.06.46-1.06 1.03v3.36c0 .53.6.88 1 .58.23-.16.4-.58.42-.81.05-.88.02-1.77.02-2.65h14.47c0 1.37.01 2.7-.02 4.03 0 .16-.19.37-.35.46-.99.58-2 1.14-2.99 1.72-.78.46-1.32 1.13-1.45 2.02-.1.57-.02 1.17-.02 1.77H4.47c-.01-.18-.02-.34-.02-.5v-3.26c0-.65-.27-1-.75-1-.46.01-.7.36-.7.98v3.66c0 1.23.37 1.63 1.57 1.63 3.34 0 6.67.01 10.01 0 .34 0 .53.11.69.37.49.94.99 1.82 1.52 2.69.13.21.35.45.56.49.23.04.55-.09.73-.25.28-.25.2-.59.02-.93-.74-1.26-1.48-2.56-2.22-3.86-.68-1.2-.46-2 .75-2.69 3.73-2.14 7.47-4.27 11.2-6.45 1.17-.63 2-.41 2.67.76 1.88 3.24 3.77 6.59 5.65 9.88 1.32 2.36 2.64 4.62 3.96 6.93.46.79.39 1.68-.28 2.13-.96.65-1.99 1.19-3.02 1.8-.32-.5-.6-1.06-.9-1.5-.23-.42-.63-.52-.98-.33-.35.18-.52.6-.31.97.66 1.19 1.38 2.36 2.03 3.55.22.37.65.45.99.25.36-.2.45-.59.27-.99-.1-.22-.23-.45-.36-.68.88-.5 1.73-.99 2.58-1.48 1.74-1.01 2.22-2.77 1.24-4.51-.37-.56-.64-1.13-.96-1.69.12-.01.18.02.24.07.98.84 1.98 1.63 2.93 2.49 2.66 2.42 3.72 5.44 3.35 9-.25 2.35-.49 4.81-.72 7.21-.03.23-.01.51.1.71.39.74.81 1.43 1.24 2.18.25.43.67.54 1.04.32.41-.22.41-.64.22-1.07-.32-.59-.66-1.15-.97-1.73-.08-.16-.16-.37-.14-.55.22-2.34.47-4.72.7-7.01.4-4.01-.81-7.44-3.82-10.15-1.99-1.8-4.08-3.47-6.12-5.21-.22-.19-.46-.42-.56-.67-2.07-3.61-4.13-7.22-6.2-10.82-.99-1.72-2.76-2.19-4.48-1.21-1.12.63-2.22 1.27-3.34 1.91-.15.09-.31.16-.54.28v-.67c-.01-1.45.05-2.9-.04-4.34-.12-1.76-1.11-2.94-2.73-3.59-.24-.09-.49-.16-.74-.24z"/></g><g clip-path="url(#xxyia)"><path fill="#ff8000" d="M18.847 33.877v1.27h-1.6v-1.27zm.153 2.78c.768-.03 1.297-.49 1.347-1.21.05-.62.05-1.25 0-1.87-.05-.67-.57-1.15-1.24-1.17-.71-.03-1.41-.03-2.107 0-.643.02-1.162.48-1.213 1.1-.05.67-.05 1.35 0 2.02.05.64.58 1.09 1.213 1.13.357.02.708 0 1 0 .378 0 .708.01 1 0z"/></g><g clip-path="url(#xxyia)"><path fill="#ff8000" d="M6.085 33.87v1.26h-1.62v-1.26zm.09 2.78c.825-.03 1.39-.606 1.41-1.39.02-.51.02-1.02 0-1.53-.03-.76-.585-1.31-1.3-1.34-.67-.02-1.35-.02-2.02 0-.73.02-1.265.55-1.265 1.28a8.574 8.574 0 0 0 0 1.68c0 .694.525 1.26 1.255 1.3.35.02.69 0 1.04 0h.88z"/></g><g clip-path="url(#xxyia)"><path fill="#ff8000" d="M4.465 28.28h1.62v1.26h-1.62zm.81 2.764h.99c.735 0 1.28-.555 1.32-1.285.03-.57.03-1.15 0-1.715-.04-.725-.585-1.245-1.33-1.265-.65-.02-1.31-.02-1.97 0C3.535 26.8 3 27.35 3 28.1a8.075 8.075 0 0 0 0 1.63c0 .75.535 1.315 1.295 1.315h.98z"/></g><g clip-path="url(#xxyia)"><path fill="#ff8000" d="M12.487 28.274v1.26h-1.62v-1.26zm-.8-1.52h-.94c-.82.02-1.35.55-1.38 1.36-.01.51-.01 1.02 0 1.53.02.82.55 1.4 1.36 1.4h1.87c.78 0 1.32-.51 1.403-1.28v-1.72c-.093-.79-.632-1.26-1.382-1.28h-.94z"/></g><g clip-path="url(#xxyia)"><path fill="#ff8000" d="M10.862 33.889h1.63v1.26h-1.63zm.81-1.51c-.32 0-.672-.01-.94 0-.81.03-1.34.56-1.36 1.38-.01.51-.02 1.02 0 1.53.03.81.56 1.34 1.38 1.36.62.02 1.248.02 1.87 0 .75-.02 1.29-.49 1.378-1.23v-1.82c-.088-.72-.618-1.18-1.348-1.21-.33-.01-.652 0-.99 0z"/></g><g clip-path="url(#xxyia)"><path fill="#ff8000" d="M4.459 23.919v-1.26h1.63v1.26zm.85-2.78c-.309 0-.66-.01-.99 0-.76.03-1.319.56-1.319 1.31 0 .595-.051 1.12 0 1.68 0 .7.529 1.24 1.239 1.27.69.03 1.38.03 2.07 0 .691-.03 1.24-.54 1.28-1.25.03-.57.03-1.105 0-1.72-.04-.73-.589-1.25-1.31-1.28-.33-.01-.66 0-.99 0z"/></g><g clip-path="url(#xxyia)"><path fill="#ff8000" d="M10.855 23.914v-1.26h1.62v1.26zm.83-2.77h-.94c-.82.02-1.36.55-1.38 1.36-.02.54-.02 1.05 0 1.54.03.8.54 1.33 1.31 1.36.64.02 1.325.02 1.92 0 .8-.02 1.33-.52 1.405-1.36v-1.62c-.085-.77-.625-1.25-1.395-1.28h-.92z"/></g><g clip-path="url(#xxyia)"><path fill="#ff8000" d="M27.638 13.9c-.54-.03-1.08-.12-1.638-.07-1.722.214-2.902 1.12-3.531 2.76-.04.11-.07.22-.11.32-.17.4-.54.58-.92.46-.439-.12-.6-.52-.439-.95.409-1.49 1.298-2.62 2.649-3.376 1.3-.745 2.69-.915 4.14-.565.46.11.69.45.63.86a.665.665 0 0 1-.77.55z"/></g><g clip-path="url(#xxyia)"><path fill="#ff8000" d="M26.533 15.286c.13.02.33.03.52.08.42.11.64.44.58.85-.06.39-.38.62-.82.61-.26 0-.58-.09-.813.03-.267.188-.557.49-.747.8-.253.388-.59.65-.99.5-.42-.112-.57-.56-.41-1.06.37-1.052 1.45-1.85 2.67-1.81z"/></g><g clip-path="url(#xxyia)"><path fill="#ff8000" d="M27.09 19.874c-.44 0-1-.65-1-1.17 0-.4.32-.66.72-.72.44 0 1.01.65 1 1.16 0 .39-.33.71-.72.72z"/></g></g></g></svg>