<?xml version="1.0" encoding="UTF-8"?>
<svg width="84px" height="41px" viewBox="0 0 84 41" version="1.1" xmlns="http://www.w3.org/2000/svg" xmlns:xlink="http://www.w3.org/1999/xlink">
    <title>iyzico</title>
    <defs>
        <linearGradient x1="90.255%" y1="50%" x2="0%" y2="50%" id="linearGradient-1">
            <stop stop-color="#1E64FF" offset="0%"></stop>
            <stop stop-color="#1E64FF" stop-opacity="0" offset="100%"></stop>
        </linearGradient>
    </defs>
    <g id="Symbols" stroke="none" stroke-width="1" fill="none" fill-rule="evenodd">
        <g id="iyzico">
            <rect id="Rectangle" fill="#FFFFFF" opacity="0" x="0" y="0" width="84" height="41"></rect>
            <g transform="translate(0, 7)" fill-rule="nonzero">
                <g id="Group" transform="translate(39.5294, 0)" fill="#1E64FF">
                    <path d="M10.5388235,4.0999 C10.8211765,3.5609 11.4931765,3.3509 12.0388235,3.6309 C12.5851765,3.913 12.7969412,4.578 12.5117647,5.1177 L7.43647059,14.8078 C7.24588235,15.1697 6.87952941,15.3825 6.49552941,15.3986 C6.30635294,15.4077 6.11364706,15.3692 5.93435294,15.2754 C5.38870588,14.9954 5.17694118,14.3304 5.46070588,13.79 L6.89576471,11.0474 L3.78776471,5.1184 C3.50329412,4.578 3.71717647,3.913 4.26211765,3.6316 C4.80705882,3.3509 5.47976471,3.5616 5.76282353,4.1006 L8.15011765,8.6548 L10.5388235,4.0999 Z M30.9649412,3.36 C32.1691765,3.36 33.3014118,3.8241 34.1527059,4.6669 C34.5854118,5.0974 34.5854118,5.7946 34.1527059,6.2251 C33.7171765,6.6542 33.012,6.6542 32.5778824,6.2251 C32.1458824,5.7981 31.5755294,5.5643 30.9649412,5.5643 C30.3564706,5.5643 29.7847059,5.7981 29.3541176,6.2251 C28.9235294,6.6493 28.6863529,7.2163 28.6863529,7.8197 C28.6863529,8.4217 28.9235294,8.988 29.3541176,9.4143 C29.7847059,9.8392 30.3564706,10.0765 30.9649412,10.0765 C31.5748235,10.0765 32.1458824,9.8385 32.5778824,9.4143 C33.012,8.9838 33.7171765,8.9838 34.152,9.4143 C34.5854118,9.8448 34.5854118,10.542 34.152,10.9704 C33.3007059,11.8139 32.1684706,12.278 30.9649412,12.278 C29.7621176,12.278 28.6312941,11.8139 27.78,10.9704 C26.9287059,10.1304 26.46,9.0104 26.46,7.8197 C26.46,6.6276 26.9287059,5.5097 27.78,4.6669 C28.6312941,3.8241 29.7621176,3.36 30.9649412,3.36 Z M39.9649412,3.36 C42.4496471,3.36 44.4705882,5.3606 44.4705882,7.819 C44.4705882,10.2781 42.4496471,12.278 39.9649412,12.278 C37.4809412,12.278 35.46,10.2781 35.46,7.819 C35.46,5.3606 37.4809412,3.36 39.9649412,3.36 Z M1.22964706,3.507 C1.84376471,3.507 2.34282353,4.0005 2.34282353,4.6074 L2.34282353,11.0495 C2.34282353,11.6585 1.84447059,12.1499 1.22964706,12.1499 C0.614823529,12.1499 0.116470588,11.6578 0.116470588,11.0495 L0.116470588,4.6074 C0.116470588,4.0005 0.614823529,3.5077 1.22964706,3.5077 L1.22964706,3.507 Z M19.6694118,3.507 L20.0025882,3.507 C20.2687059,3.4986 20.5376471,3.5826 20.7564706,3.7653 C21.2272941,4.1545 21.2887059,4.8503 20.8941176,5.3158 L16.9651765,9.947 L20.04,9.947 C20.6548235,9.947 21.1538824,10.4419 21.1538824,11.0495 C21.1538824,11.6585 20.6548235,12.1499 20.04,12.1499 L14.5785882,12.1499 C14.3258824,12.1499 14.0710588,12.0666 13.8628235,11.8923 C13.3927059,11.5024 13.3305882,10.808 13.7258824,10.3411 L17.6548235,5.7106 L15.0861176,5.7106 C14.4705882,5.7106 13.9729412,5.2164 13.9729412,4.6074 C13.9729412,4.0005 14.4705882,3.5077 15.0861176,3.5077 L16.9637647,3.507 L17.1543529,3.507 L19.6694118,3.507 Z M23.8884706,3.507 C24.504,3.507 25.0016471,4.0005 25.0016471,4.6074 L25.0016471,11.0495 C25.0016471,11.6585 24.504,12.1499 23.8884706,12.1499 C23.2743529,12.1499 22.7767059,11.6578 22.7767059,11.0495 L22.7767059,4.6074 C22.7767059,4.0005 23.2743529,3.5077 23.8884706,3.5077 L23.8884706,3.507 Z M39.9649412,5.565 C38.7084706,5.565 37.6870588,6.5765 37.6870588,7.8204 C37.6870588,9.0636 38.7084706,10.0772 39.9649412,10.0772 C41.2214118,10.0772 42.2449412,9.0636 42.2449412,7.8204 C42.2449412,6.5765 41.2214118,5.565 39.9649412,5.565 Z M1.22964706,0 C1.908,0 2.45929412,0.5453 2.45929412,1.218 C2.45929412,1.8886 1.90870588,2.4346 1.22964706,2.4346 C0.550588235,2.4346 0,1.8886 0,1.2173 C0,0.546 0.550588235,0 1.22964706,0 Z M23.8884706,0 C24.5682353,0 25.1188235,0.5453 25.1188235,1.218 C25.1188235,1.8886 24.5682353,2.4346 23.8884706,2.4346 C23.2087059,2.4346 22.6581176,1.8886 22.6581176,1.2173 C22.6588235,0.546 23.2094118,0 23.8884706,0 Z" id="Shape"></path>
                </g>
                <path d="M56.7105882,18.7908 C58.6235294,18.7908 60.5138824,20.3875 60.5138824,22.6954 C60.5138824,25.004 58.6235294,26.6 56.7105882,26.6 C54.7976471,26.6 52.9072941,25.004 52.9072941,22.6954 C52.9072941,20.3875 54.7983529,18.7908 56.7105882,18.7908 L56.7105882,18.7908 Z M66.264,18.7138 C66.5802353,18.7138 66.8541176,18.977 66.8541176,19.2941 L66.8541176,26.0092 C66.8541176,26.327 66.5802353,26.5895 66.264,26.5895 C65.9463529,26.5895 65.6844706,26.327 65.6844706,26.0092 L65.6844706,25.4191 C65.6082353,25.9112 64.9298824,26.6 63.8915294,26.6 C62.6788235,26.6 61.2254118,25.6592 61.2254118,23.681 C61.2254118,21.7329 62.6894118,20.7704 63.8915294,20.7704 C64.7004706,20.7704 65.4,21.1869 65.6844706,21.8204 L65.6844706,21.3829 C65.6844706,21.35 65.6844706,21.3059 65.6950588,21.2737 L65.6950588,19.2941 C65.6950588,18.977 65.9576471,18.7138 66.264,18.7138 L66.264,18.7138 Z M39.9995294,20.804 C40.2395294,20.804 40.4470588,21.0112 40.4470588,21.2632 L40.4470588,26.1191 C40.4470588,26.3816 40.2395294,26.5895 39.9995294,26.5895 C39.7482353,26.5895 39.5407059,26.3816 39.5407059,26.1191 L39.5407059,21.2632 C39.5407059,21.0112 39.7482353,20.804 39.9995294,20.804 L39.9995294,20.804 Z M42.1192941,18.7145 C42.36,18.7145 42.5675294,18.9224 42.5675294,19.1625 L42.5675294,26.1191 C42.5675294,26.3592 42.36,26.5783 42.1192941,26.5783 C41.868,26.5783 41.6604706,26.3592 41.6604706,26.1191 L41.6604706,19.1625 C41.6604706,18.9224 41.868,18.7145 42.1192941,18.7145 Z M46.3496471,20.7704 C47.5955294,20.7704 49.092,21.7553 49.092,23.527 C49.092,23.877 48.8844706,24.0408 48.5131765,24.0408 L44.4917647,24.0198 C44.5898824,25.2448 45.5294118,25.8237 46.4696471,25.8237 C46.9722353,25.8237 47.3767059,25.6816 47.7367059,25.4079 C47.9011765,25.2987 47.9992941,25.2441 48.1192941,25.2441 C48.3275294,25.2441 48.4581176,25.3862 48.4581176,25.5829 C48.4581176,25.7033 48.4037647,25.8237 48.2181176,25.9875 C47.7804706,26.3704 47.1367059,26.5783 46.4477647,26.5783 C45.0487059,26.5783 43.5515294,25.6592 43.5515294,23.6908 C43.5515294,21.7224 45.1037647,20.7704 46.3496471,20.7704 L46.3496471,20.7704 Z M70.6687059,20.7704 C71.9145882,20.7704 73.4117647,21.7553 73.4117647,23.4934 C73.4117647,23.9428 73.1604706,24.1178 72.6903529,24.1178 L69.0289412,24.1066 C69.1489412,25.1237 69.9465882,25.627 70.8218824,25.627 C71.2701176,25.627 71.5757647,25.5178 71.9145882,25.3099 C72.1002353,25.2119 72.2202353,25.1349 72.3734118,25.1349 C72.6247059,25.1349 72.7778824,25.3099 72.7778824,25.55 C72.7778824,25.6928 72.7235294,25.8461 72.4828235,26.0421 C72.0677647,26.3816 71.4663529,26.5783 70.7774118,26.5783 C69.3571765,26.5783 67.8381176,25.6704 67.8381176,23.6908 C67.8381176,21.7224 69.4228235,20.7704 70.6687059,20.7704 Z M64.0778824,21.7658 C63.2802353,21.7658 62.3837647,22.3895 62.3837647,23.6803 C62.3837647,24.9816 63.2802353,25.6053 64.0778824,25.6053 C64.8211765,25.6053 65.7388235,25.0362 65.7388235,23.6803 C65.7388235,22.3132 64.8211765,21.7658 64.0778824,21.7658 Z M56.7105882,19.9066 C55.3771765,19.9066 54.1425882,21.0336 54.1425882,22.6954 C54.1425882,24.3579 55.3778824,25.4737 56.7105882,25.4737 C58.0447059,25.4737 59.2792941,24.3579 59.2792941,22.6954 C59.2792941,21.0336 58.0545882,19.9066 56.7105882,19.9066 L56.7105882,19.9066 Z M46.3496471,21.5698 C45.5407059,21.5698 44.5898824,22.1158 44.4917647,23.3408 L48.2068235,23.3408 C48.1087059,22.1158 47.1691765,21.5698 46.3496471,21.5698 Z M70.6687059,21.777 C69.9472941,21.777 69.1277647,22.2362 69.0289412,23.275 L72.2858824,23.275 C72.1877647,22.2362 71.4014118,21.777 70.6687059,21.777 L70.6687059,21.777 Z M39.9995294,18.6046 C40.2395294,18.6046 40.4583529,18.8125 40.4583529,19.0645 C40.4583529,19.3158 40.2395294,19.5237 39.9995294,19.5237 C39.7482353,19.5237 39.5294118,19.3158 39.5294118,19.0645 C39.5294118,18.8125 39.7482353,18.6046 39.9995294,18.6046 Z M58.0545882,16.8 C58.4047059,16.8 58.6884706,17.0842 58.6884706,17.4244 C58.6884706,17.7632 58.4047059,18.0474 58.0545882,18.0474 C57.7051765,18.0474 57.4214118,17.7632 57.4214118,17.4244 C57.4214118,17.0842 57.7051765,16.8 58.0545882,16.8 Z M55.3665882,16.8 C55.716,16.8 55.9997647,17.0842 55.9997647,17.4244 C55.9997647,17.7632 55.716,18.0474 55.3665882,18.0474 C55.0171765,18.0474 54.7327059,17.7632 54.7327059,17.4244 C54.7327059,17.0842 55.0171765,16.8 55.3665882,16.8 Z" id="Shape" fill="#495057"></path>
                <g id="Group" fill="url(#linearGradient-1)">
                    <path d="M3.49411765,0 C1.56423529,0 0,1.5666 0,3.5 L0,24.5 C0,26.4334 1.56423529,28 3.49411765,28 L24.9317647,28 C26.2348235,28 27.4291765,27.2741 28.0305882,26.1163 L33.4877647,15.6163 C33.7461176,15.1193 33.8774118,14.5747 33.8823529,14.0301 L33.8823529,13.9699 C33.8774118,13.4253 33.7461176,12.8814 33.4877647,12.3837 L28.0312941,1.8837 C27.4284706,0.7259 26.2341176,0 24.9317647,0 L3.49411765,0 Z" id="Path"></path>
                </g>
            </g>
        </g>
    </g>
</svg>