<svg xmlns="http://www.w3.org/2000/svg" width="77" height="84" viewBox="0 0 77 84"><g><g><path fill="#ff8000" d="M9.279 32.79c3.889.478 5.721 2.6 5.721 6.264 0 4.372 0 8.744.052 13.135.03 2.153-.32 4.105-2.155 5.539 2.396 4.372 5.643 7.858 9.783 10.527 2.877 1.852 6.004 3.137 9.32 3.934.603.1.843 0 1.144-.498 1.856-2.889 5.373-4.113 8.61-3.068 3.246 1.056 5.322 4.084 5.152 7.566-.15 3.28-2.556 6.059-5.906 6.815-4 .927-8.147-1.723-8.878-5.815-.122-.927-.562-1.236-1.484-1.465-9.291-2.35-16.297-7.708-20.998-16.014-.311-.52-.64-.807-1.273-.767-.962.06-1.935.03-2.907.01-3.027-.05-5.392-2.3-5.46-5.298V38.257c.068-2.848 2.203-5.068 5-5.388.22-.02.39-.05.6-.08C5.861 22.483 9.86 13.938 17.9 7.415 24 2.484 31 .084 38.897.189c8.951.123 16.649 3.37 22.944 9.685 6.294 6.315 9.361 14.022 9.552 22.876.607.08 1.232.09 1.794.229 2.255.568 3.813 2.54 3.813 4.86v15.566c0 3.188-2.36 5.518-5.557 5.558-1.353.01-2.697.02-4.05 0-2.977-.05-5.393-2.3-5.393-5.249V37.62c0-2.63 1.855-4.43 4.722-4.69.731-.07.912-.28.882-.987C67 18.33 57.54 7.19 44.15 4.466 28.403 1.259 12.687 11.846 9.91 27.56c-.3 1.703-.42 3.446-.631 5.219z"/></g></g></svg>