<?xml version="1.0" encoding="UTF-8"?>
<svg width="84px" height="41px" viewBox="0 0 84 41" version="1.1" xmlns="http://www.w3.org/2000/svg" xmlns:xlink="http://www.w3.org/1999/xlink">
    <title>visa</title>
    <g id="Symbols" stroke="none" stroke-width="1" fill="none" fill-rule="evenodd">
        <g id="Group-2-Copy">
            <rect id="Rectangle" fill="#FFFFFF" opacity="0" x="0" y="0" width="84" height="41"></rect>
            <g id="Visa_2021" transform="translate(11, 11)" fill="#1A1E74" fill-rule="nonzero">
                <path d="M40.3828537,0 C35.980623,0 32.0465766,2.27171597 32.0465766,6.46888561 C32.0465766,11.2822467 39.0237572,11.6147035 39.0237572,14.0328026 C39.0237572,15.0509614 37.8517872,15.9623732 35.8501095,15.9623732 C33.0093379,15.9623732 30.8861359,14.688857 30.8861359,14.688857 L29.9776491,18.9242646 C29.9776491,18.9242646 32.4235379,20 35.6708346,20 C40.483882,20 44.2711782,17.6167436 44.2711782,13.3478051 C44.2711782,8.26162074 37.2649265,7.93904453 37.2649265,5.69464536 C37.2649265,4.8970638 38.2270132,4.02315521 40.2229601,4.02315521 C42.4749949,4.02315521 44.3123632,4.94934882 44.3123632,4.94934882 L45.2014693,0.858659125 C45.2014693,0.858659125 43.2022536,0 40.3828537,0 L40.3828537,0 Z M0.106595806,0.308731821 L0,0.926194231 C0,0.926194231 1.85203088,1.26365288 3.52008434,1.93680673 C5.66784271,2.70871506 5.8208399,3.15807994 6.18255707,4.55378712 L10.1241793,19.6816211 L15.4079401,19.6816211 L23.5479837,0.308731821 L18.2763362,0.308731821 L13.0458736,13.4804631 L10.9115346,2.31548527 C10.7157971,1.03766237 9.724324,0.308731821 8.51070663,0.308731821 L0.106595806,0.308731821 Z M25.6677866,0.308731821 L21.5323539,19.6816211 L26.5593156,19.6816211 L30.6802127,0.308731821 L25.6677866,0.308731821 Z M53.7049074,0.308731821 C52.492723,0.308731821 51.8504651,0.954853708 51.3791807,2.08393625 L44.0143791,19.6816211 L49.2860266,19.6816211 L50.3059545,16.7486734 L56.7283524,16.7486734 L57.3485461,19.6816211 L62,19.6816211 L57.9420908,0.308731821 L53.7049074,0.308731821 L53.7049074,0.308731821 Z M54.3905125,5.54269199 L55.9531104,12.8123493 L51.7668017,12.8123493 L54.3905125,5.54269199 L54.3905125,5.54269199 Z" id="path3789"></path>
            </g>
        </g>
    </g>
</svg>