<svg xmlns="http://www.w3.org/2000/svg" width="26" height="26" viewBox="0 0 26 26"><defs><clipPath id="dqx6a"><path d="M0 0v26h26V0z"/></clipPath></defs><g><g><g/><g clip-path="url(#dqx6a)"><path fill="#ff8000" d="M20.722 19.65a9.75 9.75 0 0 0-1.023-1.228 9.857 9.857 0 0 0-3.317-2.19 5.936 5.936 0 0 0-.219-9.505 5.761 5.761 0 0 0-3.445-1.102c-1.235 0-2.44.375-3.445 1.102a5.936 5.936 0 0 0-2.167 2.896A6.116 6.116 0 0 0 7 13.24a6.126 6.126 0 0 0 2.053 2.993 9.858 9.858 0 0 0-3.316 2.19c-.369.386-.737.796-1.024 1.228C3.76 18.556 3 17.277 2.601 15.894a10.442 10.442 0 0 1-.445-4.286 10.613 10.613 0 0 1 8.004-9.23C11.569 2 13 2 14.466 2.21c1.432.24 2.8.79 4.018 1.558a10.614 10.614 0 0 1 3.068 3.027c.196.29.377.591.542.901a10.79 10.79 0 0 1 1.26 5.025 10.541 10.541 0 0 1-2.632 6.929zM8.736 11.565c0-.784.264-1.565.668-2.2a3.961 3.961 0 0 1 6.094-.601 3.87 3.87 0 0 1 1.085 2.028 3.96 3.96 0 1 1-7.847.773zm3.961 11.76A10.36 10.36 0 0 1 6.126 21c.72-1 1.697-1.933 2.874-2.55a7.693 7.693 0 0 1 3.703-.937c1.297 0 2.584.322 3.731.938C17.582 19.067 18.56 20 19.28 21a10.36 10.36 0 0 1-6.582 2.324zm11.096-16.57a11.317 11.317 0 0 0-.645-1.024C22.187 4.25 20.925 3 19.444 2a12.785 12.785 0 0 0-4.89-1.846C12.811-.12 11 0 9.324.431 7.62.889 6 1.7 4.66 2.81a12.588 12.588 0 0 0-3.292 4.073A12.881 12.881 0 0 0 0 11.944a12.88 12.88 0 0 0 .842 5.17A12.59 12.59 0 0 0 3.7 21.502c.246.26.502.498.768.737.266.226.532.45.819.655 2.162 1.595 4.713 2.462 7.415 2.462 2.688 0 5.356-.867 7.519-2.462A7.22 7.22 0 0 0 21 22.24c.301-.239.56-.478.807-.737a12.567 12.567 0 0 0 2.048-14.707z"/></g></g></g></svg>